# xmcd CD database file
#
# Track frame offsets:
#	150
#	22153
#	44370
#
# Disc length: 899 seconds
#
# Revision: 0
# Processed by: cddbd v1.5.1PL2 Copyright (c) Steve Scherf et al.
# Submitted via: CDex 1.60beta1
#
DISCID=21038103
DTITLE=千葉紗子 - 舞-HiME キャラクターソング VOL.2
DYEAR=2004
DGENRE=Anime
TTITLE0=水辺の花
TTITLE1=サウンドシネマ 「センチメンタル・メモリー」
TTITLE2=水辺の花 (off vocal)
EXTD=YEAR: 2004
EXTT0=
EXTT1=
EXTT2=
PLAYORDER=
